<svg width="84" height="16" viewBox="0 0 84 16" fill="none" xmlns="http://www.w3.org/2000/svg">
<path fill-rule="evenodd" clip-rule="evenodd" d="M0 15.2784H11.4975V11.1119H0V15.2784Z" fill="white"/>
<path fill-rule="evenodd" clip-rule="evenodd" d="M0.638672 4.16752H9.62961V0.000915527H0.638672V4.16752Z" fill="white"/>
<path fill-rule="evenodd" clip-rule="evenodd" d="M2.50708 12.2177H8.99039V2.23853H2.50708V12.2177Z" fill="white"/>
<path fill-rule="evenodd" clip-rule="evenodd" d="M15.3208 6.00863L9.61859 0.000915527L7.96362 6.01919L13.154 11.1392H17.4877L22.6781 6.01919L20.9813 0.000915527L15.3208 6.00863Z" fill="white"/>
<path fill-rule="evenodd" clip-rule="evenodd" d="M19.1453 15.2782H30.6427V11.1116H19.1453V15.2782Z" fill="white"/>
<path fill-rule="evenodd" clip-rule="evenodd" d="M20.9788 4.16752H30.0041V0.000915527H20.9788V4.16752Z" fill="white"/>
<path fill-rule="evenodd" clip-rule="evenodd" d="M21.6523 12.2177H28.1357V2.23853H21.6523V12.2177Z" fill="white"/>
<path fill-rule="evenodd" clip-rule="evenodd" d="M61.7925 4.16739H74.1479V0.000793457H61.7925V4.16739Z" fill="white"/>
<path fill-rule="evenodd" clip-rule="evenodd" d="M56.8152 15.2782H68.3127V11.1119H56.8152V15.2782Z" fill="white"/>
<path fill-rule="evenodd" clip-rule="evenodd" d="M70.7544 15.2783H84V11.1121H70.7544V15.2783Z" fill="white"/>
<path fill-rule="evenodd" clip-rule="evenodd" d="M74.1464 0L70.274 3.92223L65.1776 3.95475L59.4673 12.5349L65.1946 12.6385L65.4883 11.3447L66.4512 9.9086L72.7584 9.90714L74.3124 12.5935L81.592 12.8098L74.1464 0ZM69.7926 4.81258L71.101 7.0581L68.3038 7.06842L69.7926 4.81258Z" fill="white"/>
<path fill-rule="evenodd" clip-rule="evenodd" d="M48.9006 11.1266H55.3864V0.000793457H48.9006V11.1266Z" fill="white"/>
<path fill-rule="evenodd" clip-rule="evenodd" d="M33.6338 0.000915527V11.1658L40.117 15.3334H48.8943V11.1266H40.1195V0.000915527H33.6338Z" fill="white"/>
</svg>
