<svg width="396" height="396" viewBox="0 0 396 396" fill="none" xmlns="http://www.w3.org/2000/svg">
<rect width="396" height="396" rx="48" fill="black"/>
<path fill-rule="evenodd" clip-rule="evenodd" d="M328.137 109.299L328.14 109.295L328.142 109.299H328.145V109.304L354.288 154.281H368.03V171.147H314.408V154.281H325.343L322.521 149.403L296.987 149.409L293.721 154.28H304.523V171.147H257.977V154.28H272.548L291.258 126.166H278.126V109.299H328.137ZM315.811 137.869L310.514 128.778L304.487 137.911L315.811 137.869Z" fill="white"/>
<path d="M30.5555 109.299H66.9539V109.347L89.9929 133.62L112.899 109.309V109.299H149.437V126.167H141.872V154.279H152.022V171.147H105.476V154.279H115.625V137.759L98.7657 154.391H81.2212L64.3661 137.764V154.28H74.5154V171.147H27.9696V154.28H38.1194V126.167H30.5555V109.299Z" fill="white"/>
<path d="M225.936 154.34H252.192V109.299H225.936V154.34Z" fill="white"/>
<path d="M164.131 154.498V109.299H190.387V154.339H225.911V171.37H190.377L164.131 154.498Z" fill="white"/>
<rect x="164" y="189.551" width="201.332" height="96.6394" fill="#7DF6CA"/>
<path d="M327.687 270.084C323.979 270.084 320.667 269.308 317.751 267.757C314.85 266.185 312.569 264.062 310.909 261.387C309.265 258.693 308.443 255.651 308.443 252.262C308.443 249.67 308.916 247.292 309.862 245.128C310.808 242.964 312.088 241.168 313.702 239.739C315.33 238.289 317.146 237.36 319.147 236.952V236.462C316.525 235.829 314.376 234.227 312.701 231.655C311.041 229.082 310.211 226.071 310.211 222.621C310.211 219.355 310.963 216.446 312.468 213.895C313.989 211.343 316.06 209.332 318.681 207.862C321.319 206.392 324.32 205.658 327.687 205.658C331.053 205.658 334.047 206.392 336.669 207.862C339.306 209.332 341.377 211.343 342.882 213.895C344.403 216.446 345.163 219.355 345.163 222.621C345.163 226.092 344.317 229.113 342.626 231.685C340.951 234.237 338.818 235.829 336.227 236.462V236.952C338.213 237.36 340.012 238.289 341.626 239.739C343.255 241.168 344.542 242.964 345.489 245.128C346.45 247.292 346.931 249.67 346.931 252.262C346.931 255.651 346.101 258.693 344.441 261.387C342.781 264.062 340.501 266.185 337.6 267.757C334.714 269.308 331.41 270.084 327.687 270.084ZM327.687 259.336C329.099 259.336 330.34 258.989 331.41 258.295C332.481 257.58 333.318 256.59 333.923 255.325C334.544 254.059 334.854 252.63 334.854 251.038C334.854 249.405 334.544 247.955 333.923 246.689C333.303 245.424 332.45 244.434 331.364 243.719C330.293 242.984 329.068 242.617 327.687 242.617C326.322 242.617 325.096 242.984 324.01 243.719C322.924 244.434 322.071 245.424 321.451 246.689C320.83 247.955 320.52 249.405 320.52 251.038C320.52 252.63 320.822 254.059 321.427 255.325C322.048 256.57 322.893 257.55 323.964 258.264C325.05 258.979 326.291 259.336 327.687 259.336ZM327.687 231.93C328.897 231.93 329.967 231.604 330.898 230.95C331.844 230.297 332.581 229.389 333.109 228.225C333.652 227.062 333.923 225.745 333.923 224.275C333.923 222.805 333.652 221.509 333.109 220.386C332.581 219.263 331.852 218.386 330.921 217.753C329.991 217.1 328.912 216.773 327.687 216.773C326.477 216.773 325.399 217.1 324.452 217.753C323.506 218.386 322.769 219.263 322.242 220.386C321.714 221.509 321.451 222.805 321.451 224.275C321.451 225.745 321.714 227.062 322.242 228.225C322.785 229.368 323.529 230.277 324.476 230.95C325.422 231.604 326.492 231.93 327.687 231.93Z" fill="black"/>
<path d="M263.308 258.815V246.995L282.832 206.514H290.813V222.56H286.183L274.757 246.383V246.873H303.03V258.815H263.308ZM286.322 269.226V255.202L286.555 250.027V206.514H297.329V269.226H286.322Z" fill="black"/>
<path d="M238.905 270.084C236.298 270.084 233.801 269.533 231.412 268.43C229.023 267.308 226.897 265.532 225.036 263.102C223.174 260.653 221.708 257.448 220.638 253.487C219.567 249.507 219.04 244.658 219.055 238.942C219.071 233.778 219.552 229.144 220.498 225.041C221.444 220.917 222.794 217.416 224.547 214.538C226.316 211.659 228.425 209.465 230.876 207.954C233.343 206.423 236.097 205.658 239.137 205.658C242.473 205.658 245.413 206.515 247.957 208.23C250.516 209.924 252.564 212.21 254.1 215.089C255.636 217.947 256.543 221.131 256.823 224.642H245.49C245.149 222.662 244.396 221.162 243.233 220.141C242.085 219.1 240.72 218.58 239.137 218.58C236.221 218.58 234.041 220.243 232.598 223.571C231.171 226.898 230.442 231.348 230.411 236.921H230.714C231.365 235.043 232.304 233.431 233.529 232.083C234.755 230.736 236.159 229.705 237.741 228.991C239.339 228.256 241.03 227.888 242.814 227.888C245.669 227.888 248.189 228.756 250.377 230.491C252.564 232.226 254.278 234.604 255.52 237.626C256.761 240.627 257.373 244.066 257.358 247.945C257.373 252.314 256.598 256.172 255.031 259.52C253.464 262.847 251.292 265.44 248.515 267.297C245.754 269.155 242.55 270.084 238.905 270.084ZM238.835 258.448C240.247 258.448 241.511 258.009 242.628 257.131C243.745 256.253 244.621 255.059 245.257 253.549C245.893 252.038 246.204 250.333 246.188 248.435C246.204 246.516 245.893 244.811 245.257 243.321C244.637 241.831 243.768 240.647 242.651 239.769C241.55 238.891 240.285 238.452 238.858 238.452C237.819 238.452 236.849 238.708 235.949 239.218C235.05 239.728 234.266 240.443 233.599 241.361C232.948 242.26 232.436 243.321 232.063 244.546C231.691 245.75 231.497 247.057 231.482 248.465C231.497 250.323 231.823 252.007 232.459 253.518C233.095 255.029 233.964 256.233 235.065 257.131C236.167 258.009 237.423 258.448 238.835 258.448Z" fill="black"/>
<path d="M183.365 269.226L202.586 219.13V218.732H180.107V206.514H214.5V218.824L195.209 269.226H183.365Z" fill="black"/>
</svg>
